<?xml version="1.0" encoding="UTF-8" standalone="no"?>
<svg
   xmlns:dc="http://purl.org/dc/elements/1.1/"
   xmlns:cc="http://creativecommons.org/ns#"
   xmlns:rdf="http://www.w3.org/1999/02/22-rdf-syntax-ns#"
   xmlns:svg="http://www.w3.org/2000/svg"
   xmlns="http://www.w3.org/2000/svg"
   xmlns:sodipodi="http://sodipodi.sourceforge.net/DTD/sodipodi-0.dtd"
   xmlns:inkscape="http://www.inkscape.org/namespaces/inkscape"
   version="1.1"
   class="page"
   pageAlignment="none"
   x="0px"
   y="0px"
   width="274.84"
   height="231.342"
   viewBox="0 0 274.84 231.342"
   enable-background="new 0 0 842 595"
   xml:space="preserve"
   id="svg2"
   inkscape:version="0.91 r13725"
   sodipodi:docname="catSmall.svg"><metadata
     id="metadata30"><rdf:RDF><cc:Work
         rdf:about=""><dc:format>image/svg+xml</dc:format><dc:type
           rdf:resource="http://purl.org/dc/dcmitype/StillImage" /><dc:title></dc:title></cc:Work></rdf:RDF></metadata><sodipodi:namedview
     pagecolor="#ffffff"
     bordercolor="#666666"
     borderopacity="1"
     objecttolerance="10"
     gridtolerance="10"
     guidetolerance="10"
     inkscape:pageopacity="0"
     inkscape:pageshadow="2"
     inkscape:window-width="1855"
     inkscape:window-height="1056"
     id="namedview28"
     showgrid="false"
     inkscape:zoom="0.35391924"
     inkscape:cx="84.765101"
     inkscape:cy="297.5"
     inkscape:window-x="65"
     inkscape:window-y="24"
     inkscape:window-maximized="1"
     inkscape:current-layer="Layer 01" /><defs
     id="defs4" /><style
     type="text/css"
     id="style6" /><style
     type="text/css"
     id="style8" /><g
     type="LAYER"
     name="workspace"
     id="workspace"
     locked="true"
     transform="translate(0,-363.658)" /><g
     id="Layer 01"
     type="LAYER"
     name="Layer 01"
     transform="matrix(1,0,0,1.0000011,-0.30485596,-4.0507865e-6)"><path
       transform="translate(274.72661,32.831291)"
       width="274.00364520048674"
       height="198.0923450789794"
       stroke-miterlimit="3"
       d="M 0,99.046173 C 0,44.344477 -61.337798,0 -137.00182,0 c -75.66403,0 -137.00183,44.344477 -137.00183,99.046173 0,54.701697 61.3378,99.046177 137.00183,99.046177 C -61.337798,198.09235 0,153.74787 0,99.046173 Z"
       id="path12"
       inkscape:connector-curvature="0"
       style="fill:#1d466d;stroke:#000000;stroke-width:0.83620763;stroke-miterlimit:3;fill-opacity:1" /><path
       transform="translate(575.34283,-138.3402)"
       width="69.99999999999983"
       height="80"
       stroke-miterlimit="3"
       d="m -322.29115,218.3402 q 5.83517,-46.41464 -8.66096,-80 -44.98797,20.05096 -59.66775,39.77805 49.99689,37.01045 68.32871,40.22195"
       id="path14"
       inkscape:connector-curvature="0"
       style="fill:#1d466d;stroke:#000000;stroke-width:0;stroke-miterlimit:3;fill-opacity:1" /><path
       transform="translate(-300.61986,-138.3402)"
       width="70"
       height="80"
       stroke-miterlimit="3"
       d="m 322.29115,218.3402 q -5.83517,-46.41464 8.66096,-80 44.98797,20.05096 59.66775,39.77805 -49.99689,37.01045 -68.32871,40.22195"
       id="path16"
       inkscape:connector-curvature="0"
       style="fill:none;stroke:none;stroke-width:0;stroke-miterlimit:3" /><path
       transform="matrix(0.98446453,0.17558356,-0.17558356,0.98446453,615.57287,-85.48244)"
       width="65"
       height="48.00000000000006"
       stroke-miterlimit="3"
       d="m -338.29238,251.07923 q -11.15669,22.20696 -23.70797,30.81782 -17.19991,10.87688 -40.3623,15.10197 3.49663,-19.54752 16.65432,-37.30893 13.94587,-15.40891 48.34568,-8.61086"
       id="path18"
       inkscape:connector-curvature="0"
       style="fill:#c1c9d2;stroke:none;stroke-width:0.84617138;stroke-miterlimit:3;fill-opacity:1" /><path
       transform="translate(-82.162364,-37.953735)"
       width="23.99999999999997"
       height="18"
       stroke-miterlimit="3"
       d="m 218.7593,224.0308 q -12.53963,-4.36363 -11.52837,-11.45454 c 1.01126,-3.54546 4.66176,-6.4855 11.52837,-6.54546 6.8666,-0.0599 12.22216,3.49434 12.40489,6.81779 q 0.22148,8.1227 -12.40489,11.18221"
       id="path20"
       inkscape:connector-curvature="0"
       style="fill:none;stroke:none;stroke-width:0;stroke-miterlimit:3" /><path
       transform="matrix(0.98446453,-0.17558356,0.17558356,0.98446453,-340.11874,-85.48244)"
       width="65.00000000000011"
       height="48"
       stroke-miterlimit="3"
       d="m 338.29238,251.07923 q 11.15669,22.20696 23.70797,30.81782 17.19991,10.87688 40.3623,15.10197 -3.49663,-19.54752 -16.65432,-37.30893 -13.94587,-15.40891 -48.34568,-8.61086"
       id="path22"
       inkscape:connector-curvature="0"
       style="fill:#c1c9d2;stroke:none;stroke-width:0.84617138;stroke-miterlimit:3;fill-opacity:1" /><path
       transform="translate(-211.47396,-85.989305)"
       width="38.23968728299678"
       height="21.268650509610495"
       stroke-miterlimit="3"
       d="m 348.55363,264.71294 q -19.97964,-5.15604 -18.36838,-13.5346 c 1.61126,-4.18928 7.42768,-7.66322 18.36838,-7.73405 10.9407,-0.0708 19.47382,4.12887 19.76496,8.05583 q 0.35289,9.59772 -19.76496,13.21282"
       id="path24"
       inkscape:connector-curvature="0"
       style="fill:#c1c9d2;stroke:none;stroke-width:0;stroke-miterlimit:3;fill-opacity:1" /><path
       transform="matrix(-1,0,0,1,-299.8969,-138.3402)"
       width="69.99999999999983"
       height="80"
       stroke-miterlimit="3"
       d="m -322.29115,218.3402 q 5.83517,-46.41464 -8.66096,-80 -44.98797,20.05096 -59.66775,39.77805 49.99689,37.01045 68.32871,40.22195"
       id="path26"
       inkscape:connector-curvature="0"
       style="fill:#1d466d;stroke:#000000;stroke-width:0;stroke-miterlimit:3;fill-opacity:1" /></g></svg>